<svg width="22" height="22" viewBox="0 0 22 22" fill="none" xmlns="http://www.w3.org/2000/svg">
<path fill-rule="evenodd" clip-rule="evenodd" d="M4.86103 15.4735C1.93541 12.5476 1.93541 7.78749 4.86103 4.86217C6.32384 3.39976 8.24781 2.66781 10.1668 2.66781C12.0858 2.66781 14.0098 3.39976 15.4726 4.86217C18.3982 7.78749 18.3982 12.5476 15.4726 15.4735C12.547 18.3993 7.78665 18.3993 4.86103 15.4735ZM20.7543 19.5621L17.0633 15.8739C20.0259 12.3093 19.8401 6.99589 16.5011 3.6562C12.9567 0.115088 7.19775 0.11411 3.65827 3.6562C0.113909 7.19683 0.113909 12.9585 3.65827 16.4997C5.42801 18.2705 7.75018 19.1554 10.0772 19.1554C12.1403 19.1554 14.1985 18.4567 15.8753 17.0648L19.5615 20.7531C19.7277 20.9179 19.9428 21 20.1579 21C20.373 21 20.5881 20.9179 20.7543 20.7531C21.0819 20.4241 21.0819 19.8912 20.7543 19.5621Z" fill="#67829A"/>
<path d="M4.86103 4.86217L4.71963 4.72073L4.71962 4.72074L4.86103 4.86217ZM15.4726 4.86217L15.614 4.72074L15.614 4.72073L15.4726 4.86217ZM17.0633 15.8739L16.9095 15.746L16.7929 15.8864L16.9219 16.0153L17.0633 15.8739ZM16.5011 3.6562L16.6425 3.5148L16.6425 3.51472L16.5011 3.6562ZM3.65827 3.6562L3.79962 3.7977L3.79975 3.79757L3.65827 3.6562ZM3.65827 16.4997L3.79974 16.3583L3.79963 16.3582L3.65827 16.4997ZM15.8753 17.0648L16.0168 16.9234L15.8879 16.7945L15.7476 16.9109L15.8753 17.0648ZM19.5615 20.7531L19.42 20.8945L19.4207 20.8951L19.5615 20.7531ZM20.7543 20.7531L20.8951 20.8952L20.8961 20.8942L20.7543 20.7531ZM5.00246 15.332C2.15493 12.4843 2.15495 7.85081 5.00244 5.0036L4.71962 4.72074C1.71587 7.72417 1.71589 12.611 4.7196 15.6149L5.00246 15.332ZM5.00243 5.00361C6.42611 3.58032 8.2985 2.86781 10.1668 2.86781V2.46781C8.19711 2.46781 6.22157 3.2192 4.71963 4.72073L5.00243 5.00361ZM10.1668 2.86781C12.0351 2.86781 13.9075 3.58032 15.3312 5.00361L15.614 4.72073C14.1121 3.2192 12.1365 2.46781 10.1668 2.46781V2.86781ZM15.3312 5.0036C18.1787 7.85081 18.1787 12.4843 15.3312 15.332L15.614 15.6149C18.6177 12.611 18.6178 7.72417 15.614 4.72074L15.3312 5.0036ZM15.3312 15.332C12.4837 18.1797 7.84997 18.1797 5.00246 15.332L4.7196 15.6149C7.72333 18.6188 12.6103 18.6188 15.614 15.6149L15.3312 15.332ZM20.8957 19.4207L17.2047 15.7324L16.9219 16.0153L20.613 19.7036L20.8957 19.4207ZM17.2171 16.0017C20.245 12.3586 20.0555 6.9284 16.6425 3.5148L16.3597 3.79761C19.6248 7.06339 19.8068 12.26 16.9095 15.746L17.2171 16.0017ZM16.6425 3.51472C13.0201 -0.104338 7.13447 -0.105513 3.5168 3.51484L3.79975 3.79757C7.26103 0.333732 12.8934 0.334513 16.3597 3.79769L16.6425 3.51472ZM3.51693 3.51471C-0.105648 7.13346 -0.105634 13.0219 3.51692 16.6411L3.79963 16.3582C0.333451 12.8952 0.333465 7.2602 3.79962 3.7977L3.51693 3.51471ZM3.51681 16.641C5.32568 18.451 7.69945 19.3554 10.0772 19.3554V18.9554C7.80092 18.9554 5.53035 18.0899 3.79974 16.3583L3.51681 16.641ZM10.0772 19.3554C12.1855 19.3554 14.2892 18.6414 16.0031 17.2187L15.7476 16.9109C14.1078 18.2721 12.0952 18.9554 10.0772 18.9554V19.3554ZM15.7339 17.2062L19.42 20.8945L19.7029 20.6117L16.0168 16.9234L15.7339 17.2062ZM19.4207 20.8951C19.6254 21.0981 19.8916 21.2 20.1579 21.2V20.8C19.994 20.8 19.83 20.7376 19.7023 20.6111L19.4207 20.8951ZM20.1579 21.2C20.4242 21.2 20.6904 21.0981 20.8951 20.8951L20.6135 20.6111C20.4859 20.7376 20.3218 20.8 20.1579 20.8V21.2ZM20.8961 20.8942C21.3013 20.4871 21.3013 19.8281 20.8961 19.421L20.6126 19.7032C20.8625 19.9542 20.8625 20.361 20.6126 20.612L20.8961 20.8942Z" fill="#67829A"/>
</svg>
